<svg xmlns="http://www.w3.org/2000/svg" viewBox="0 0 512 511.97"><defs><style>.a{fill:#999de3;}.b{fill:#766bd1;}.c{fill:#eb5793;}.d{fill:#e7387f;}.e{fill:#ffe565;}.f{fill:#ffd508;}.g{fill:#e5e2e6;}.h{fill:#d6d1d7;}</style></defs><title>login</title><path class="a" d="M504.46,30.75A22.06,22.06,0,0,0,481.23,7.52,292.34,292.34,0,0,0,388.66,28L484,123.32A292,292,0,0,0,504.46,30.75Z" transform="translate(0 0)"/><path class="b" d="M481.23,7.52q-14.18.77-28.07,2.89a22,22,0,0,1,11,20.34,292.17,292.17,0,0,1-10.27,62.48L484,123.32a292.28,292.28,0,0,0,20.44-92.57A22.06,22.06,0,0,0,481.23,7.52Z" transform="translate(0 0)"/><path class="c" d="M354.84,48.3A333.8,333.8,0,0,0,202.38,170.84l-95,139.92a19.23,19.23,0,0,0,2.31,24.39l67.12,67.12a19.21,19.21,0,0,0,24.38,2.31l139.92-95A333.84,333.84,0,0,0,463.69,157.14Z" transform="translate(0 0)"/><path class="d" d="M354.84,48.3q-14.14,5.64-27.7,12.55l71.26,71.26a50.51,50.51,0,0,1,8.86,59.63A333.71,333.71,0,0,1,300.88,309.6L171.79,397.22l5.05,5a19.21,19.21,0,0,0,24.38,2.31l139.92-95A333.84,333.84,0,0,0,463.69,157.14Z" transform="translate(0 0)"/><path class="e" d="M193.72,183.61a116.19,116.19,0,0,0-147.39,14l-20,20A7.31,7.31,0,0,0,30.41,230l8.2,1.25a150.44,150.44,0,0,1,83.7,42.35l6.17,6.16Z" transform="translate(0 0)"/><path class="e" d="M328.38,318.27a116.18,116.18,0,0,1-14,147.38l-20,20a7.31,7.31,0,0,1-12.4-4.07l-1.25-8.19a150.36,150.36,0,0,0-42.34-83.7l-6.16-6.17Z" transform="translate(0 0)"/><path class="e" d="M110.86,336.29a51.9,51.9,0,0,0-21.94,13.1C68.57,369.73-2.59,492,8.71,503.27s133.54-59.86,153.89-80.2a52,52,0,0,0,13.09-21.95Z" transform="translate(0 0)"/><path class="f" d="M110.86,336.29a51.9,51.9,0,0,0-21.94,13.1c-.77.76-1.6,1.67-2.51,2.72l35.79,35.78a24.86,24.86,0,0,1,.32,35l-.19.19C108.73,436.66,49.64,473,8.55,492.16c-1.39,5.57-1.46,9.49.16,11.12,11.3,11.3,133.54-59.87,153.89-80.21a52,52,0,0,0,13.09-21.95Z" transform="translate(0 0)"/><path class="e" d="M468.3,161.75,350.23,43.68a8.12,8.12,0,0,1,1.65-12.75l19.68-11.5a8.12,8.12,0,0,1,9.84,1.27L491.28,130.58a8.12,8.12,0,0,1,1.27,9.84l-11.49,19.69A8.13,8.13,0,0,1,468.3,161.75Z" transform="translate(0 0)"/><path class="f" d="M491.28,130.58,381.4,20.7a8.12,8.12,0,0,0-9.84-1.27l-9.84,5.75,105.4,105.4a8.11,8.11,0,0,1,1.27,9.84L460.5,154l7.8,7.8a8.13,8.13,0,0,0,12.76-1.64l11.49-19.69A8.13,8.13,0,0,0,491.28,130.58Z" transform="translate(0 0)"/><path class="e" d="M143.28,368.71a24.94,24.94,0,0,0,34.25,1l74.94-67.06a30.52,30.52,0,1,0-43.09-43.09l-67,74.94A24.93,24.93,0,0,0,143.28,368.71Z" transform="translate(0 0)"/><path class="f" d="M253.7,258.28A30.55,30.55,0,0,0,217,253.33a30.54,30.54,0,0,1,5.25,49.27l-74.94,67.06q-.74.66-1.53,1.26a25,25,0,0,0,31.73-1.26l74.94-67.06A30.51,30.51,0,0,0,253.7,258.28Z" transform="translate(0 0)"/><path class="f" d="M146,209.47l-36,53a148.1,148.1,0,0,1,12.34,11.06l6.17,6.16,65.24-96.11a116.15,116.15,0,0,0-80.38-19.07,117.7,117.7,0,0,1,18.13,3.85A27,27,0,0,1,146,209.47Z" transform="translate(0 0)"/><path class="f" d="M328.38,318.27,306.68,333a116.17,116.17,0,0,1-22.47,132.66l-4,4.05c.21,1.23.42,2.45.6,3.68l1.25,8.19a7.31,7.31,0,0,0,12.4,4.07l20-20A116.18,116.18,0,0,0,328.38,318.27Z" transform="translate(0 0)"/><path class="a" d="M142.33,334.45l19.3-21.57-33.15-33.16-21.07,31a19.23,19.23,0,0,0,2.31,24.39l33.55,33.55A24.94,24.94,0,0,1,142.33,334.45Z" transform="translate(0 0)"/><path class="a" d="M199.11,350.35l-21.58,19.31a24.93,24.93,0,0,1-34.24-.94l33.55,33.55a19.2,19.2,0,0,0,24.38,2.3l31-21.06Z" transform="translate(0 0)"/><path class="g" d="M451.87,91.17,420.81,60.11l11.8-11.79a22,22,0,0,1,31.05,31.06Z" transform="translate(0 0)"/><path class="h" d="M463.66,79.38a22,22,0,0,0,0-31.06c-.28-.28-.56-.55-.86-.81a290.48,290.48,0,0,1-7.37,40.1Z" transform="translate(0 0)"/><path class="c" d="M129.05,354.48a24.85,24.85,0,0,0-13.89,7c-9.75,9.75-55.2,81.19-50.53,85.85s76.1-40.79,85.85-50.54a24.91,24.91,0,0,0,7-13.89Z" transform="translate(0 0)"/><path class="d" d="M129.05,354.48a24.81,24.81,0,0,0-13.89,7,102.63,102.63,0,0,0-8.48,10.86l15.52,15.52A25.06,25.06,0,0,1,128.47,413c10.58-7.05,19.08-13.2,22-16.13a24.83,24.83,0,0,0,7-13.89Z" transform="translate(0 0)"/><path d="M480.78,0A299.36,299.36,0,0,0,390.49,19.2l-3.78-3.78a15.67,15.67,0,0,0-19-2.45l-19.67,11.5a15.67,15.67,0,0,0-5.89,21,342.77,342.77,0,0,0-124.59,92.89,7.55,7.55,0,1,0,11.54,9.73A327.47,327.47,0,0,1,353,57.23L403.9,108.1,454.77,159A324.93,324.93,0,0,1,336.89,303.35L233.2,373.74l-23.09-23.1,47.41-42.42a38.06,38.06,0,1,0-53.74-53.74l-42.42,47.41L138.27,278.8l70.38-103.7a7.55,7.55,0,1,0-12.49-8.47l-4.55,6.7A123.77,123.77,0,0,0,41.05,192.26l-20,20a14.86,14.86,0,0,0,8.26,25.2l8.2,1.25A141.93,141.93,0,0,1,117,278.89l1.75,1.76L101.2,306.52a26.8,26.8,0,0,0-2.1,26.36A59.62,59.62,0,0,0,83.62,344c-11.89,11.9-36.31,51.14-53.24,82C20,444.93,11.84,461.66,6.67,474.46-1.07,493.6-2,503.17,3.43,508.57c7.52,7.52,24.14.79,34.11-3.24,12.8-5.17,29.53-13.37,48.39-23.71,30.89-16.93,70.13-41.35,82-53.24a60.09,60.09,0,0,0,11.16-15.48,26.79,26.79,0,0,0,26.35-2.1l25.88-17.57L233.1,395a141.88,141.88,0,0,1,40.21,79.49l1.25,8.19a14.85,14.85,0,0,0,25.19,8.27l20-20a7.54,7.54,0,0,0-10.67-10.67l-19.66,19.65-1.18-7.73a156.77,156.77,0,0,0-44.17-87.59l82.09-55.72a108.51,108.51,0,0,1,3,103.8,7.55,7.55,0,1,0,13.46,6.84,123.63,123.63,0,0,0-3.91-119.14l6.7-4.55a340,340,0,0,0,121.17-146,15.68,15.68,0,0,0,21-5.89L499,144.26a15.66,15.66,0,0,0-2.45-19l-3.77-3.77c1.57-4.12,3.05-8.28,4.42-12.44a7.55,7.55,0,0,0-14.33-4.74c-.6,1.81-1.21,3.61-1.85,5.41L462.51,91.22,469,84.76A29.5,29.5,0,1,0,427.24,43l-6.46,6.45L402.25,31A283.68,283.68,0,0,1,481.6,15.12,14.5,14.5,0,0,1,496.88,30.4a285.53,285.53,0,0,1-4.06,34.87,7.54,7.54,0,1,0,14.85,2.67A299.88,299.88,0,0,0,512,31.22,29.63,29.63,0,0,0,480.78,0ZM215,264.56A23,23,0,1,1,247.45,297l-53.31,47.7-.1.08L172.52,364A17.38,17.38,0,0,1,148,339.48L167.25,318l.05-.06Zm-88.26,98.26,22.42,22.41a17.38,17.38,0,0,1-4,6.24c-3.44,3.44-19.11,14.51-39.38,27.07-12.73,7.89-22.37,13.32-29.08,16.76,3.44-6.71,8.86-16.35,16.75-29.08C106,386,117.09,370.28,120.53,366.83A17.32,17.32,0,0,1,126.76,362.82Zm-87-139.06-7.72-1.17,19.65-19.66a108.65,108.65,0,0,1,131.39-17.08l-55.72,82.08A156.89,156.89,0,0,0,39.79,223.76ZM113.69,315l15.94-23.48,21.64,21.64-14.54,16.25A32.36,32.36,0,0,0,129.24,344l-14.15-14.14A11.69,11.69,0,0,1,113.69,315ZM83.51,465.71c-37.85,21.09-60,29.63-68.23,31,1.38-8.27,9.92-30.38,31-68.23,18.48-33.17,39.12-64.89,48-73.77A44.59,44.59,0,0,1,108.92,345l6.63,6.63a32.47,32.47,0,0,0-5.69,4.55c-5.93,5.93-20.8,28.25-31.77,46.23-4.61,7.54-11,18.45-15.61,27.55-4.89,9.77-8.23,17.64-3.14,22.72,5.61,5.61,15.12.66,22.72-3.14,9.1-4.55,20-11,27.55-15.61,18-11,40.3-25.84,46.23-31.77a32.84,32.84,0,0,0,4.55-5.69l6.63,6.63a44.83,44.83,0,0,1-9.73,14.62C148.39,426.59,116.68,447.23,83.51,465.71ZM197,398.31a11.68,11.68,0,0,1-14.8-1.4L168,382.75a32.38,32.38,0,0,0,14.55-7.48l16.25-14.54,21.64,21.64ZM486,136.65,474.5,156.32a.56.56,0,0,1-.9.12l-59-59-59-59a.57.57,0,0,1,.12-.9L375.35,26a.6.6,0,0,1,.29-.08.56.56,0,0,1,.4.17C408.41,58.46,449.25,99.31,485.9,136A.57.57,0,0,1,486,136.65ZM437.91,53.71a14.41,14.41,0,0,1,20.38,20.38l-6.46,6.45L431.46,60.16Z" transform="translate(0 0)"/><path class="a" d="M396.62,113.6,299,136.49l14,62.16,61.15,13Z" transform="translate(0 0)"/><path class="a" d="M296.59,214.54l60.76,14.16-90.92,18.74L282,153.32Z" transform="translate(0 0)"/><path d="M293.75,137.67l14,62.16a5.35,5.35,0,0,0,4.12,4.07l61.15,13a5.37,5.37,0,0,0,6.36-4.05l22.43-98.09a5.35,5.35,0,0,0-1.43-5h0a5.37,5.37,0,0,0-5-1.43l-97.63,22.9a5.37,5.37,0,0,0-4,6.41Zm95.71-16.88-19.34,84.53-52.61-11.21L305.4,140.5Z" transform="translate(0 0)"/><path d="M276.67,152.44l-15.54,94.12a5.41,5.41,0,0,0,1.5,4.68l.08.07a5.34,5.34,0,0,0,4.8,1.39L358.44,234a5.38,5.38,0,0,0,.13-10.5L301,210.06l-13.85-58a5.37,5.37,0,0,0-10.52.37Zm14.69,63.35a5.37,5.37,0,0,0,4,4l36.93,8.61L273,240.6l9.93-60.12Z" transform="translate(0 0)"/></svg>