<?xml version="1.0" encoding="utf-8"?>
<svg viewBox="0 0 500 500" style="shape-rendering: geometricprecision;" xmlns="http://www.w3.org/2000/svg">
  <g transform="matrix(0.34375, 0, 0, 0.34375, 99.994911, 112.085159)" style="">
    <path class="fil0" d="M 747.726 217.027 C 771.271 456.355 700.268 742.303 496.581 889.93 L 496.581 803.759 C 651.433 661.265 701.822 418.882 680.494 217.027 L 747.726 217.027 Z M 660.282 739.58 L 787.451 812.992 L 787.451 969.607 L 889.383 803.114 L 725.49 599.408 C 734.427 573.506 741.669 547.744 748.215 521.179 L 970.84 797.894 L 782.494 1105.503 L 720.55 1088.119 L 720.55 851.304 L 622.685 794.806 C 636.126 777.176 648.657 758.728 660.282 739.58 Z M 261.86 794.945 L 164.24 851.304 L 164.24 1088.119 L 102.313 1105.503 L -86.015 797.894 L 136.314 521.511 C 142.876 548.041 150.12 573.82 159.055 599.687 L -4.593 803.114 L 97.356 969.607 L 97.356 812.992 L 224.246 739.738 C 235.87 758.885 248.421 777.333 261.86 794.945 Z M 475.688 527.427 L 475.688 1088.119 L 408.787 1088.119 L 408.787 527.427 L 475.688 527.427 Z M 746.208 196.134 L 558.263 196.134 C 551.717 342.189 332.741 342.189 326.195 196.134 L 138.25 196.134 C 174.189 -20.121 244.301 -192.845 442.23 -309.944 C 640.227 -192.828 710.165 -20.138 746.208 196.134 Z M 387.878 889.947 C 184.19 742.425 113.239 456.251 136.733 217.027 L 203.983 217.027 C 182.636 418.882 233.044 661.282 387.878 803.776 L 387.878 889.947 Z" style="fill-rule: nonzero; fill: rgb(255, 255, 255);"/>
  </g>
  <text x="-231.584" y="435.955" fill="#000000" font-size="5px" font-weight="bold" font-family="'Helvetica Neue', Helvetica, Arial-Unicode, Arial, Sans-serif" style="white-space: pre; font-size: 3.9px;">Created by SUPRIYANTO YANTO</text>
  <text x="-231.584" y="439.904" fill="#000000" font-size="5px" font-weight="bold" font-family="'Helvetica Neue', Helvetica, Arial-Unicode, Arial, Sans-serif" style="white-space: pre; font-size: 3.9px;">from the Noun Project</text>
</svg>